<svg xmlns="http://www.w3.org/2000/svg" x="0px" y="0px"
width="120" height="120"
viewBox="0,0,256,256"
style="fill:#000000;">
<defs><radialGradient cx="20.66" cy="13.128" r="18.437" gradientUnits="userSpaceOnUse" id="color-1_LnZMjt9rZC3d_gr1"><stop offset="0" stop-color="#fafafb"></stop><stop offset="0.293" stop-color="#f6f7f8"></stop><stop offset="0.566" stop-color="#ebecee"></stop><stop offset="0.832" stop-color="#d8dcdf"></stop><stop offset="1" stop-color="#c8cdd1"></stop></radialGradient><radialGradient cx="11.72" cy="7.271" r="0.104" gradientUnits="userSpaceOnUse" id="color-2_LnZMjt9rZC3d_gr2"><stop offset="0" stop-color="#fafafb"></stop><stop offset="0.293" stop-color="#f6f7f8"></stop><stop offset="0.566" stop-color="#ebecee"></stop><stop offset="0.832" stop-color="#d8dcdf"></stop><stop offset="1" stop-color="#c8cdd1"></stop></radialGradient><radialGradient cx="11.041" cy="8.123" r="0.101" gradientUnits="userSpaceOnUse" id="color-3_LnZMjt9rZC3d_gr3"><stop offset="0" stop-color="#fafafb"></stop><stop offset="0.293" stop-color="#f6f7f8"></stop><stop offset="0.566" stop-color="#ebecee"></stop><stop offset="0.832" stop-color="#d8dcdf"></stop><stop offset="1" stop-color="#c8cdd1"></stop></radialGradient><radialGradient cx="31.824" cy="28.562" r="0.004" gradientUnits="userSpaceOnUse" id="color-4_LnZMjt9rZC3d_gr4"><stop offset="0" stop-color="#fafafb"></stop><stop offset="0.293" stop-color="#f6f7f8"></stop><stop offset="0.566" stop-color="#ebecee"></stop><stop offset="0.832" stop-color="#d8dcdf"></stop><stop offset="1" stop-color="#c8cdd1"></stop></radialGradient><linearGradient x1="16.012" y1="26.093" x2="29.033" y2="26.476" gradientUnits="userSpaceOnUse" id="color-5_LnZMjt9rZC3d_gr5"><stop offset="0" stop-color="#f44f5a"></stop><stop offset="0.443" stop-color="#ee3d4a"></stop><stop offset="1" stop-color="#e52030"></stop></linearGradient></defs><g transform="translate(21.33333,21.33333) scale(0.83333,0.83333)"><g fill="none" fill-rule="none" stroke="none" stroke-width="1" stroke-linecap="butt" stroke-linejoin="miter" stroke-miterlimit="10" stroke-dasharray="" stroke-dashoffset="0" font-family="none" font-weight="none" font-size="none" text-anchor="none" style="mix-blend-mode: normal"><g transform="scale(5.33333,5.33333)"><path d="M34.809,32.711v0c1.016,0.306 1.952,0.833 2.74,1.543c0.133,0.085 0.219,0.228 0.23,0.386c0,0.235 -0.175,0.466 -0.536,0.686c-0.648,0.434 -1.273,0.9 -1.873,1.398c-0.592,0.483 -1.212,0.93 -1.858,1.337c-0.083,0.044 -0.176,0.068 -0.27,0.07c-0.132,0.002 -0.26,-0.048 -0.356,-0.14c-0.184,-0.16 -0.203,-0.438 -0.043,-0.622c0.004,-0.005 0.009,-0.01 0.013,-0.014c0.202,-0.26 0.465,-0.467 0.766,-0.601c0.354,-0.194 0.689,-0.421 1.002,-0.676c0.501,-0.381 0.801,-0.636 1.002,-0.751c0.396,-0.2 0.601,-0.341 0.601,-0.426c0.004,-0.018 0.004,-0.037 0,-0.055c-0.247,-0.407 -0.63,-0.712 -1.082,-0.862c-0.446,-0.125 -0.902,-0.26 -1.357,-0.401c-0.456,-0.114 -0.869,-0.355 -1.192,-0.696c-0.01,-0.031 -0.01,-0.064 0,-0.095c0.016,-0.142 0.086,-0.273 0.195,-0.366c0.09,-0.112 0.222,-0.182 0.366,-0.195c0.073,-0.01 0.147,-0.01 0.22,0c0.268,0.015 0.532,0.079 0.776,0.19l0.726,0.316M13.465,32.28c0.181,-0.003 0.358,0.055 0.501,0.165c0.12,0.092 0.192,0.234 0.195,0.386c0.001,0.108 -0.043,0.211 -0.12,0.286c-0.54,0.476 -1.173,0.836 -1.858,1.057c-0.69,0.22 -1.3,0.638 -1.753,1.202c0.646,0.375 1.316,0.71 2.004,1.002l2.074,0.912c0.161,0.064 0.263,0.223 0.255,0.396c0.03,0.235 -0.072,0.468 -0.265,0.606c-0.19,0.157 -0.43,0.242 -0.676,0.24c-0.1,0 -0.199,-0.02 -0.291,-0.06c-0.141,-0.138 -0.292,-0.265 -0.451,-0.381c-1.202,-0.668 -2.488,-1.292 -3.857,-1.873c-0.135,-0.055 -0.275,-0.11 -0.411,-0.155c-0.151,-0.061 -0.263,-0.192 -0.301,-0.351c0.006,-0.42 0.188,-0.817 0.501,-1.097c0.644,-0.469 1.342,-0.859 2.079,-1.162c0.743,-0.297 1.444,-0.692 2.084,-1.172h0.29z" fill="#5d4037" fill-rule="nonzero"></path><path d="M22.051,32.24c-0.171,-0.265 -0.384,-0.5 -0.631,-0.696c-0.198,-0.138 -0.435,-0.21 -0.676,-0.205c-0.081,-0.002 -0.161,0.013 -0.235,0.045l-1.503,0.501c-0.096,0.03 -0.195,0.043 -0.296,0.04c-0.178,0.013 -0.355,-0.037 -0.501,-0.14c-0.182,-0.158 -0.336,-0.346 -0.456,-0.556l-0.416,0.281c0.176,0.295 0.403,0.556 0.671,0.771c0.211,0.132 0.457,0.197 0.706,0.185c0.127,-0.001 0.254,-0.02 0.376,-0.055l1.388,-0.501c0.094,-0.036 0.194,-0.055 0.296,-0.055c0.152,-0.01 0.304,0.031 0.431,0.115c0.175,0.143 0.327,0.312 0.451,0.501l0.396,-0.22" fill="#5d4037" fill-rule="nonzero"></path><path d="M32.289,40.61c0.761,4.558 -4.809,5.009 -7.098,2.95c-1.583,-1.413 -1.137,-3.381 1.132,-3.256c2.004,0.106 3.171,2.68 5.966,0.306" fill="#5d4037" fill-rule="evenodd"></path><path d="M15.364,40.61c-0.761,4.558 4.809,5.009 7.098,2.95c1.583,-1.413 1.137,-3.381 -1.132,-3.256c-2.004,0.106 -3.171,2.68 -5.966,0.306" fill="#5d4037" fill-rule="evenodd"></path><path d="M20.839,33.998c-0.279,-0.184 -0.608,-0.276 -0.942,-0.265c-0.404,-0.015 -0.798,0.129 -1.097,0.401c-0.338,0.332 -0.482,0.814 -0.381,1.277c0.049,0.436 0.223,0.848 0.501,1.187c0.236,0.316 0.607,0.502 1.002,0.501c0.258,-0.004 0.511,-0.073 0.736,-0.2c0.451,-0.27 0.671,-0.781 0.671,-1.548c0.058,-0.503 -0.123,-1.004 -0.49,-1.353zM19.877,35.811c-0.277,0 -0.501,-0.224 -0.501,-0.501c0,-0.277 0.224,-0.501 0.501,-0.501c0.277,0 0.501,0.224 0.501,0.501c0,0.277 -0.224,0.501 -0.501,0.501z" fill="#5d4037" fill-rule="nonzero"></path><path d="M24.195,39.914c0.139,0.001 0.276,-0.025 0.406,-0.075c0.124,-0.048 0.242,-0.112 0.351,-0.19c0.102,-0.082 0.198,-0.173 0.286,-0.27c0.083,-0.093 0.156,-0.194 0.22,-0.301c0.061,-0.094 0.115,-0.193 0.16,-0.296c0.035,-0.074 0.064,-0.151 0.085,-0.23v-0.045c-0.01,-0.014 -0.019,-0.029 -0.025,-0.045v0c-0.13,0.2 -0.293,0.378 -0.481,0.526c-0.144,0.136 -0.314,0.24 -0.501,0.306c-0.188,0.065 -0.387,0.097 -0.586,0.095c-0.17,0.003 -0.339,-0.021 -0.501,-0.07c-0.139,-0.044 -0.269,-0.112 -0.386,-0.2c-0.117,-0.094 -0.223,-0.202 -0.316,-0.321c-0.097,-0.13 -0.18,-0.269 -0.25,-0.416v0c-0.011,0.011 -0.02,0.025 -0.025,0.04c0,0 0,0.03 0,0.04c0.068,0.192 0.156,0.376 0.26,0.551c0.094,0.168 0.212,0.322 0.351,0.456c0.124,0.13 0.27,0.236 0.431,0.316c0.159,0.067 0.329,0.104 0.501,0.11" fill="#5d4037" fill-rule="nonzero"></path><path d="M28.613,33.968c-0.278,-0.185 -0.607,-0.28 -0.942,-0.27c-0.405,-0.014 -0.799,0.132 -1.097,0.406c-0.336,0.333 -0.478,0.815 -0.376,1.277c0.046,0.436 0.22,0.85 0.501,1.187c0.236,0.315 0.608,0.501 1.002,0.501c0.258,-0.004 0.512,-0.073 0.736,-0.2c0.493,-0.352 0.752,-0.947 0.676,-1.548c-0.024,-0.677 -0.185,-1.133 -0.5,-1.353zM27.511,35.867c-0.277,0 -0.501,-0.224 -0.501,-0.501c0,-0.277 0.224,-0.501 0.501,-0.501c0.277,0 0.501,0.224 0.501,0.501c0,0.277 -0.225,0.501 -0.501,0.501z" fill="#5d4037" fill-rule="nonzero"></path><path d="M38.519,9.951c-0.113,-0.175 -0.224,-0.354 -0.339,-0.518c-0.092,-0.132 -0.186,-0.252 -0.279,-0.377c-0.137,-0.184 -0.275,-0.367 -0.414,-0.537c-0.083,-0.102 -0.167,-0.196 -0.251,-0.293c-0.155,-0.178 -0.309,-0.351 -0.465,-0.513c-0.071,-0.073 -0.141,-0.143 -0.212,-0.213c-0.181,-0.18 -0.363,-0.35 -0.546,-0.51c-0.043,-0.037 -0.085,-0.075 -0.128,-0.111c-2.281,-1.946 -4.592,-2.44 -6.076,-2.765l-0.821,-0.185c-3.005,-0.576 -5.53,-0.867 -8.09,-0.501c-1.008,0.219 -1.982,0.573 -2.895,1.052c-1.257,0.571 -2.565,1.162 -3.827,1.252c-1.321,0.341 -2.468,1.162 -3.216,2.304l-0.14,0.2c-0.671,1.403 -0.847,2.992 -0.501,4.508c0.276,0.902 0.616,1.783 0.937,2.63c0.736,1.727 1.269,3.534 1.588,5.385c0.332,0.658 0.591,1.35 0.771,2.064c0.426,1.483 0.912,3.151 2.229,4.448h0.035c0.011,-0.005 0.022,-0.009 0.033,-0.014c0.003,0.003 0.005,0.006 0.008,0.009c1.14,-0.54 2.24,-0.902 3.307,-1.124c0.15,-0.031 0.298,-0.053 0.446,-0.078c0.18,-0.031 0.36,-0.063 0.538,-0.087c0.289,-0.037 0.576,-0.064 0.861,-0.081c0.025,-0.002 0.05,-0.005 0.075,-0.006c3.649,-0.2 6.912,1.133 10.1,2.433l0.575,0.238c0.018,-0.008 0.035,-0.029 0.053,-0.039c0.01,0.004 0.019,0.008 0.029,0.012c0.781,-0.341 1.177,-2.965 1.703,-5.41c1.893,-4.333 6.126,-7.514 5.871,-11.521c-0.309,-0.607 -0.632,-1.144 -0.959,-1.652z" fill="url(#color-1_LnZMjt9rZC3d_gr1)" fill-rule="nonzero"></path><path d="M11.824,7.213c-0.052,0.051 -0.112,0.094 -0.162,0.148c0.05,-0.054 0.11,-0.097 0.162,-0.148z" fill="url(#color-2_LnZMjt9rZC3d_gr2)" fill-rule="nonzero"></path><path d="M11.122,8.056c-0.04,0.059 -0.089,0.11 -0.127,0.171l0.061,-0.086c0.02,-0.03 0.046,-0.055 0.066,-0.085z" fill="url(#color-3_LnZMjt9rZC3d_gr3)" fill-rule="nonzero"></path><path d="M31.829,28.563l-0.007,-0.002l-0.003,0.002z" fill="url(#color-4_LnZMjt9rZC3d_gr4)" fill-rule="nonzero"></path><path d="M31.473,26.384c-0.007,-0.089 -0.044,-0.18 -0.071,-0.27c0,-0.001 -0.001,-0.003 -0.001,-0.004c-0.337,-1.099 -2.136,-2.252 -4.586,-2.876c-0.135,-0.036 -0.273,-0.053 -0.409,-0.084c-0.006,-0.001 -0.012,-0.002 -0.018,-0.004c-0.585,-0.134 -1.176,-0.224 -1.771,-0.277c-0.036,-0.003 -0.072,-0.007 -0.108,-0.01c-0.338,-0.027 -0.675,-0.044 -1.014,-0.044c-0.298,-0.002 -0.597,0.003 -0.895,0.023c-0.133,0.009 -0.265,0.022 -0.397,0.035c-0.311,0.031 -0.62,0.073 -0.926,0.13c-0.107,0.018 -0.215,0.024 -0.322,0.045c-2.018,0.371 -3.797,1.551 -4.924,3.266l0.065,2.65v0.04h0.03c1.741,-0.997 3.667,-1.628 5.66,-1.853c3.171,-0.286 6.417,0.681 9.587,2.895h0.03v-0.05c0.213,-1.193 0.237,-2.412 0.07,-3.612z" fill="url(#color-5_LnZMjt9rZC3d_gr5)" fill-rule="nonzero"></path><path d="M12.975,7.881c-0.341,1.733 1.202,7.203 0.701,10.073c-0.26,-1.503 -1.222,-4.508 -1.182,-6.176c-0.461,-1.002 -0.927,-2.229 -1.438,-2.7c-0.511,-0.471 1.057,-2.92 1.944,-1.197" fill="#f9f9fa" fill-rule="evenodd"></path><path d="M16.476,25.493v0c-2.004,-2.364 -2.855,-6.437 -3.556,-9.868c-0.556,-2.725 -1.032,-5.049 -1.949,-5.78v0c-0.109,-0.148 -0.182,-0.319 -0.21,-0.501c-0.032,-0.347 0.039,-0.696 0.205,-1.002c0.158,-0.342 0.401,-0.637 0.706,-0.857c0.193,-0.133 0.414,-0.218 0.646,-0.25v0.045c-0.231,0.032 -0.45,0.117 -0.641,0.25c-0.202,0.253 -0.383,0.523 -0.541,0.806c-0.451,0.902 0.501,0.857 0.857,1.347c0.927,0.746 1.002,3.196 1.563,5.931c0.701,3.426 0.932,7.489 2.94,9.843v0v0l-0.03,0.035" fill="#c1cbd7" fill-rule="nonzero"></path><path d="M16.401,7.175c-0.346,1.728 0.536,5.705 0,8.58c-0.26,-1.503 -1.222,-4.508 -1.182,-6.171c-0.466,-1.002 -1.002,-2.164 -1.347,-2.76c-0.345,-0.596 1.237,-1.257 2.505,0.351" fill="#f9f9fa" fill-rule="evenodd"></path><path d="M15.73,6.564c-0.278,-0.233 -0.65,-0.318 -1.002,-0.23c-0.138,0.015 -0.27,0.063 -0.386,0.14c-0.102,0.067 -0.171,0.175 -0.19,0.296c0,0.18 -0.14,0.21 0,0.546v0c1.122,1.503 2.004,4.042 2.214,6.722c0.301,3.401 -0.095,7.168 2.159,9.838l-0.035,0.03c-2.264,-2.685 -2.6,-6.457 -2.895,-9.863c-0.24,-2.675 -0.456,-5.129 -1.568,-6.637v0c-0.189,-0.211 -0.285,-0.489 -0.265,-0.771c0.022,-0.132 0.096,-0.249 0.205,-0.326c0.123,-0.086 0.266,-0.138 0.416,-0.15c0.479,-0.038 0.956,0.093 1.347,0.371l-0.03,0.035" fill="#c1cbd7" fill-rule="nonzero"></path><path d="M21.911,4.129c1.042,1.738 -0.872,9.562 -1.222,14.476c-0.03,0.416 -3.697,-16.224 1.212,-14.476" fill="#f9f9fa" fill-rule="nonzero"></path><path d="M21.475,22.943c-1.475,-4.089 -2.37,-8.365 -2.66,-12.703c-0.113,-1.435 0.002,-2.879 0.341,-4.278c0.326,-1.112 0.897,-1.843 1.783,-1.974c0.324,-0.042 0.652,-0.018 0.967,0.07v0.045c-0.319,-0.059 -0.647,-0.049 -0.962,0.03c-0.741,0.17 -0.651,0.631 -1.137,1.678c-0.379,1.346 -0.502,2.751 -0.361,4.142c0.631,4.127 1.408,9.758 2.079,12.958h-0.035" fill="#c1cbd7" fill-rule="nonzero"></path><path d="M24.931,22.678c-0.05,-0.336 -0.095,-0.676 -0.145,-1.002c-0.771,-5.59 -1.718,-12.402 1.598,-17.296h0.04c-1.357,3.622 -1.543,10.519 -1.703,12.743c-0.07,0.962 0.04,3.005 0.115,4.508c0.045,0.346 0.1,0.686 0.145,1.027h-0.05" fill="#c1cbd7" fill-rule="nonzero"></path><path d="M28.528,23.394c0.115,-2.885 0.421,-6.261 0.701,-9.187c0.696,-3.687 2.57,-5.43 3.061,-9.157v-0.044c-1.69,2.827 -2.813,5.956 -3.306,9.212c-0.457,3.036 -0.597,6.112 -0.416,9.177h-0.05" fill="#c1cbd7" fill-rule="nonzero"></path><g fill="#c1cbd7" fill-rule="nonzero"><path d="M37.218,9.429c-1.503,4.628 -3.276,9.152 -5.079,13.73c0.05,-6.061 3.296,-13.355 5.079,-13.73"></path><path d="M31.258,25.197c0.791,-0.821 0.847,-2.084 0.917,-3.551c-0.017,-1.501 0.251,-2.992 0.791,-4.393c0,-0.06 0.045,-0.155 0.08,-0.286c0.441,-1.528 2.199,-7.684 4.248,-7.574v0.045c-1.608,-0.06 -3.657,6.011 -4.142,7.549c-0.035,0.125 -0.045,0.205 -0.065,0.27v0c-0.576,1.503 -0.611,3.005 -0.801,4.378c-0.065,1.473 -0.19,2.745 -1.002,3.576h-0.03"></path></g></g></g><g fill="#b4b4b4" fill-rule="nonzero" stroke="none" stroke-width="1" stroke-linecap="butt" stroke-linejoin="miter" stroke-miterlimit="10" stroke-dasharray="" stroke-dashoffset="0" font-family="none" font-weight="none" font-size="none" text-anchor="none" style="mix-blend-mode: normal"><g><path d="M32.12167,263.38h7.81c-0.29333,4.08 -1.8,7.29333 -4.52,9.64c-2.71333,2.34 -6.29333,3.51 -10.74,3.51v0c-4.86,0 -8.68333,-1.63333 -11.47,-4.9c-2.78667,-3.27333 -4.18,-7.76667 -4.18,-13.48v0v-2.32c0,-3.64667 0.64333,-6.85667 1.93,-9.63c1.28,-2.78 3.11333,-4.91333 5.5,-6.4c2.39333,-1.48 5.16667,-2.22 8.32,-2.22v0c4.38,0 7.90667,1.17 10.58,3.51c2.67333,2.34667 4.21667,5.63667 4.63,9.87v0h-7.81c-0.19333,-2.44667 -0.87333,-4.22 -2.04,-5.32c-1.17333,-1.10667 -2.96,-1.66 -5.36,-1.66v0c-2.6,0 -4.54667,0.93333 -5.84,2.8c-1.29333,1.86667 -1.95667,4.76333 -1.99,8.69v0v2.86c0,4.1 0.62,7.09667 1.86,8.99c1.24,1.88667 3.19667,2.83 5.87,2.83v0c2.41333,0 4.21333,-0.55 5.4,-1.65c1.19333,-1.1 1.87667,-2.80667 2.05,-5.12zM43.39167,262v-0.34c0,-2.79333 0.54,-5.28333 1.62,-7.47c1.07333,-2.18667 2.62333,-3.88 4.65,-5.08c2.02,-1.19333 4.36667,-1.79 7.04,-1.79v0c3.8,0 6.90333,1.16 9.31,3.48c2.40667,2.32667 3.75,5.48667 4.03,9.48v0l0.05,1.93c0,4.32667 -1.20667,7.79333 -3.62,10.4c-2.41333,2.61333 -5.65333,3.92 -9.72,3.92c-4.06,0 -7.3,-1.3 -9.72,-3.9c-2.42667,-2.60667 -3.64,-6.15 -3.64,-10.63zM50.92167,262.21v0c0,2.67333 0.50333,4.71667 1.51,6.13c1.00667,1.42 2.44667,2.13 4.32,2.13v0c1.82667,0 3.25,-0.7 4.27,-2.1c1.02667,-1.4 1.54,-3.63667 1.54,-6.71v0c0,-2.62 -0.51333,-4.65 -1.54,-6.09c-1.02,-1.44 -2.46,-2.16 -4.32,-2.16v0c-1.84,0 -3.26333,0.71667 -4.27,2.15c-1.00667,1.43333 -1.51,3.65 -1.51,6.65zM73.55167,261.72v0c0,-4.39333 0.98667,-7.89333 2.96,-10.5c1.96667,-2.6 4.66,-3.9 8.08,-3.9v0c2.74667,0 5.01333,1.02333 6.8,3.07v0v-14.38h7.55v40h-6.8l-0.36,-2.99c-1.87333,2.34 -4.28667,3.51 -7.24,3.51v0c-3.31333,0 -5.97333,-1.30667 -7.98,-3.92c-2.00667,-2.60667 -3.01,-6.23667 -3.01,-10.89zM81.08167,262.26v0c0,2.64 0.46,4.66333 1.38,6.07c0.92,1.40667 2.25667,2.11 4.01,2.11v0c2.32667,0 3.96667,-0.98 4.92,-2.94v0v-11.12c-0.94,-1.96 -2.56333,-2.94 -4.87,-2.94v0c-3.62667,0 -5.44,2.94 -5.44,8.82zM117.74167,276.53v0c-4.12667,0 -7.49,-1.26667 -10.09,-3.8c-2.59333,-2.53333 -3.89,-5.91 -3.89,-10.13v0v-0.73c0,-2.82667 0.54667,-5.35667 1.64,-7.59c1.09333,-2.22667 2.64333,-3.94333 4.65,-5.15c2.00667,-1.20667 4.29333,-1.81 6.86,-1.81v0c3.85333,0 6.88667,1.21333 9.1,3.64c2.21333,2.43333 3.32,5.88 3.32,10.34v0v3.07h-17.94c0.24,1.84 0.97333,3.31667 2.2,4.43c1.22667,1.11333 2.77667,1.67 4.65,1.67v0c2.9,0 5.16667,-1.05 6.8,-3.15v0l3.69,4.14c-1.12667,1.59333 -2.65333,2.83667 -4.58,3.73c-1.92667,0.89333 -4.06333,1.34 -6.41,1.34zM116.88167,253.41v0c-1.49333,0 -2.70333,0.50333 -3.63,1.51c-0.92667,1.00667 -1.52,2.44667 -1.78,4.32v0h10.47v-0.6c-0.04,-1.66667 -0.49333,-2.95333 -1.36,-3.86c-0.86667,-0.91333 -2.1,-1.37 -3.7,-1.37zM145.32167,270.47v0c1.39333,0 2.52333,-0.38333 3.39,-1.15c0.86667,-0.76667 1.31667,-1.78333 1.35,-3.05v0h7.06c-0.02,1.91333 -0.54,3.66333 -1.56,5.25c-1.02667,1.58667 -2.43,2.82 -4.21,3.7c-1.78,0.87333 -3.74667,1.31 -5.9,1.31v0c-4.02667,0 -7.20333,-1.28 -9.53,-3.84c-2.32667,-2.56 -3.49,-6.09667 -3.49,-10.61v0v-0.49c0,-4.34 1.15333,-7.80333 3.46,-10.39c2.31333,-2.58667 5.48333,-3.88 9.51,-3.88v0c3.52667,0 6.35333,1 8.48,3c2.12667,2.00667 3.20667,4.67667 3.24,8.01v0h-7.06c-0.03333,-1.46 -0.48333,-2.64333 -1.35,-3.55c-0.86667,-0.91333 -2.01333,-1.37 -3.44,-1.37v0c-1.75333,0 -3.07667,0.63667 -3.97,1.91c-0.89333,1.28 -1.34,3.35 -1.34,6.21v0v0.79c0,2.89333 0.44333,4.97667 1.33,6.25c0.88,1.26667 2.22333,1.9 4.03,1.9zM168.76167,236.01v14.9c1.99333,-2.39333 4.50333,-3.59 7.53,-3.59v0c6.10667,0 9.20333,3.55 9.29,10.65v0v18.04h-7.52v-17.84c0,-1.61333 -0.35,-2.80667 -1.05,-3.58c-0.69333,-0.76667 -1.84667,-1.15 -3.46,-1.15v0c-2.20667,0 -3.80333,0.85 -4.79,2.55v0v20.02h-7.53v-40zM204.23167,276.53v0c-4.13333,0 -7.49667,-1.26667 -10.09,-3.8c-2.6,-2.53333 -3.9,-5.91 -3.9,-10.13v0v-0.73c0,-2.82667 0.54667,-5.35667 1.64,-7.59c1.09333,-2.22667 2.64333,-3.94333 4.65,-5.15c2.00667,-1.20667 4.29333,-1.81 6.86,-1.81v0c3.86,0 6.89667,1.21333 9.11,3.64c2.21333,2.43333 3.32,5.88 3.32,10.34v0v3.07h-17.95c0.24667,1.84 0.98,3.31667 2.2,4.43c1.22667,1.11333 2.77667,1.67 4.65,1.67v0c2.9,0 5.16667,-1.05 6.8,-3.15v0l3.7,4.14c-1.13333,1.59333 -2.66333,2.83667 -4.59,3.73c-1.92667,0.89333 -4.06,1.34 -6.4,1.34zM203.37167,253.41v0c-1.49333,0 -2.70333,0.50333 -3.63,1.51c-0.93333,1.00667 -1.53,2.44667 -1.79,4.32v0h10.47v-0.6c-0.03333,-1.66667 -0.48333,-2.95333 -1.35,-3.86c-0.87333,-0.91333 -2.10667,-1.37 -3.7,-1.37zM229.70167,276.01h-7.56v-22.65h-4.19v-5.52h4.19v-2.4c0,-3.16 0.91,-5.61333 2.73,-7.36c1.81333,-1.74 4.35,-2.61 7.61,-2.61v0c1.04667,0 2.32333,0.17333 3.83,0.52v0l-0.08,5.83c-0.62,-0.15333 -1.38333,-0.23 -2.29,-0.23v0c-2.82667,0 -4.24,1.32667 -4.24,3.98v0v2.27h5.6v5.52h-5.6z"></path></g></g></g>
</svg>